<svg width="35" height="31" viewBox="0 0 35 31" fill="none" xmlns="http://www.w3.org/2000/svg">
<path d="M24.3333 3.54167V17.2083C24.3333 19.0875 22.7958 20.625 20.9166 20.625H10.6666C8.78746 20.625 7.24996 19.0875 7.24996 17.2083V3.54167H24.3333ZM31.1666 0.125H3.83329V17.2083C3.83329 20.9838 6.89121 24.0417 10.6666 24.0417H20.9166C24.692 24.0417 27.75 20.9838 27.75 17.2083V12.0833H31.1666C33.0629 12.0833 34.5833 10.5629 34.5833 8.66667V3.54167C34.5833 1.64542 33.0629 0.125 31.1666 0.125ZM27.75 8.66667V3.54167H31.1666V8.66667H27.75ZM31.1666 27.4583H0.416626V30.875H31.1666V27.4583Z" fill="black"/>
</svg>